<?xml version="1.0" encoding="UTF-8" standalone="no"?><!DOCTYPE svg PUBLIC "-//W3C//DTD SVG 1.1//EN" "http://www.w3.org/Graphics/SVG/1.1/DTD/svg11.dtd"><svg width="100%" height="100%" viewBox="0 0 8074 2242" version="1.1" xmlns="http://www.w3.org/2000/svg" xmlns:xlink="http://www.w3.org/1999/xlink" xml:space="preserve" xmlns:serif="http://www.serif.com/" style="fill-rule:evenodd;clip-rule:evenodd;stroke-linejoin:round;stroke-miterlimit:2;"><g><path id="d" d="M7507.045,1718.257c-161.292,-34.125 -271.625,-156.042 -302.042,-333.833c-9.542,-55.75 -9.792,-157.375 -0.458,-210c31.417,-177.667 138.083,-305.625 288.458,-346.125c45.042,-12.125 125.125,-15.417 172.375,-7.083c86.5,15.208 162.5,62.583 202.875,126.458c3.875,6.125 5.042,-40.208 5.208,-211.958l0.25,-219.792l200,0l0,1187.5l-200,0l-0.083,-57.292l-0.125,-57.292l-19.625,22.917c-45.625,53.292 -77.833,75.625 -138.708,96.292c-37.25,12.667 -43.167,13.458 -110.208,14.667c-48.708,0.875 -79.292,-0.542 -97.917,-4.458Zm196.833,-167.583c58.083,-17.25 106.917,-59.083 135.417,-116.083c22.875,-45.792 30.458,-78.125 33.042,-141.583c4.375,-106.625 -25.5,-193.167 -87.708,-253.875c-44.375,-43.292 -99.167,-62.833 -167.167,-59.625c-50.542,2.417 -79.375,12.375 -115.708,39.958c-103.042,78.208 -133.917,277 -65.417,420.875c28.792,60.458 83.542,103.417 147.167,115.5c34.958,6.625 88.292,4.333 120.375,-5.167Z" style="fill:#008000;fill-rule:nonzero;"/><path id="u" d="M6509.128,1718.382c-122.375,-27.833 -192.125,-108.417 -214.917,-248.292c-2.042,-12.583 -3.792,-161.542 -3.875,-331l-0.167,-308.083l99.875,-1.333l99.917,-1.333l1.5,290.667c1.375,259.375 2.292,293.583 8.75,317.708c24.833,93.125 104,132.333 217.25,107.625c68.667,-15 124.25,-74.625 135.292,-145.083c2.542,-16.292 4.25,-135.5 4.25,-298.958l0.042,-271.875l204.167,0l0,875l-200,0l-0.208,-55.208l-0.167,-55.208l-11.292,14.583c-41.625,53.917 -77.292,80.25 -137.25,101.25c-34.417,12.083 -40.542,12.875 -107.333,14c-48.792,0.833 -78.625,-0.542 -95.833,-4.458Z" style="fill:#008000;fill-rule:nonzero;"/><path id="b" d="M5671.628,1717.548c-61.875,-14.833 -107.125,-40.708 -150.417,-85.958l-30.833,-32.25l0,104.083l-200,0l0,-1187.5l204.167,-0l0.125,215.625l0.167,215.625l13.167,-16.667c36.5,-46.083 82.708,-77.708 139.208,-95.25c136.625,-42.542 287.417,-8.208 382.667,87.042c32.417,32.375 53.125,61.417 74.292,104.042c38.125,76.958 54.208,151.042 54.125,250c-0.125,240.875 -122.667,411.833 -317.917,443.458c-38.917,6.333 -138.667,5 -168.75,-2.25Zm122.417,-167.792c36.042,-11.25 58.125,-25.5 86.25,-55.625c46.625,-50 67.917,-108.208 71.5,-195.5c3.5,-84.917 -9.125,-144.625 -43.792,-207.708c-43.25,-78.625 -132.375,-122.667 -220.75,-109c-91.833,14.167 -156.417,78.125 -185.458,183.708c-7.25,26.375 -8.708,44.125 -9,108.625c-0.375,87.333 3.625,109.292 29.583,162.5c28.042,57.417 88.583,104.458 149.25,115.958c37.167,7.042 94.708,5.625 122.417,-2.958Z" style="fill:#008000;fill-rule:nonzero;"/><path id="x" d="M4425.086,1577.382c46.875,-69.333 111.667,-164.5 143.958,-211.458c32.292,-46.958 59.875,-89.542 61.292,-94.583c1.958,-7.167 -10.292,-28 -55.083,-93.75c-130.792,-192 -222.083,-326.917 -228.375,-337.458l-6.667,-11.167l241.75,-0.083l17.333,30c9.542,16.458 36.458,61.833 59.792,100.792c23.333,38.958 54.292,91 68.833,115.625c14.542,24.625 27.5,44.792 28.875,44.792c1.375,0 8.875,-10.792 16.667,-23.958c30.792,-51.875 156.208,-253.542 161.833,-260.208c5.417,-6.375 17.25,-7 120.125,-6.25c62.75,0.458 114.125,1.458 114.125,2.25c0,1.25 -17.25,26.542 -81.292,119.417c-137.708,199.667 -211.75,309 -211.75,312.708c0,2.5 56.042,87.833 124.542,189.667c153.083,227.583 164.333,244.5 164.333,247.375c0,1.292 -52.25,2.333 -116.125,2.333l-116.167,0l-31.208,-48.958c-33.708,-52.792 -122.833,-196.167 -142.042,-228.5l-11.792,-19.792l-11.542,18.417c-6.375,10.125 -29.417,47.5 -51.25,83c-21.875,35.5 -51.125,82.375 -65.042,104.167c-13.958,21.792 -32.458,51.25 -41.125,65.542l-15.792,26l-111.708,0.042l-111.708,0.083l85.208,-126.042Z" style="fill:#008000;fill-rule:nonzero;"/><path id="a" d="M3720.628,1723.965c-89.583,-7.083 -164.167,-45.25 -207.708,-106.25c-51.875,-72.75 -57.375,-182.417 -13.25,-265.542c16.583,-31.292 55.208,-70.917 87.792,-90c57.125,-33.542 140.667,-52.5 286.25,-65c42.375,-3.625 93.958,-8.958 114.583,-11.792l37.5,-5.208l-0.125,-46.125c-0.125,-44.833 -0.583,-47.083 -15.792,-77.833c-31.167,-63.083 -84.042,-89.042 -173.958,-85.333c-82.583,3.375 -131.917,36.458 -152.667,102.292l-6.917,21.917l-173.458,0l0,-9.75c0,-18.625 16.875,-75.833 30.917,-104.833c36.667,-75.75 101.333,-125.25 197.042,-150.917c37.458,-10.042 47.792,-10.958 126.208,-11.25c87.625,-0.333 101.125,1.292 158.333,19.292c104.542,32.833 173.708,105.25 200.167,209.542c14.292,56.292 16.292,102.875 16.375,384.375l0.125,271.875l-195.583,0l-2.333,-99.917l-15.625,19.25c-43.417,53.625 -123.375,94.167 -196.333,99.583c-16.333,1.208 -37.208,2.75 -46.375,3.417c-9.167,0.708 -34,-0.125 -55.167,-1.792Zm147.333,-155.958c51.792,-13.167 80.167,-27.375 110.583,-55.5c39.917,-36.875 53.5,-77 53.5,-158.125l0,-43.375l-15.625,2.458c-8.583,1.375 -46.542,5.292 -84.375,8.75c-89.083,8.083 -124.208,13.167 -162.5,23.375c-70.25,18.75 -100.292,52.625 -100.5,113.375c-0.208,61.708 36.625,99.917 110.917,115.125c28.542,5.875 45.5,4.667 88,-6.083Z" style="fill:#008000;fill-rule:nonzero;"/><path id="p" d="M2569.545,1703.423l0,-1187.5l241.375,-0c147.667,0 254,1.708 273.958,4.458c139.042,18.917 237.333,84.292 290.833,193.458c96.458,196.75 24.167,434.333 -160.333,527.083c-75.333,37.875 -127.958,45.625 -309.375,45.75l-132.292,0.083l0,416.667l-204.167,0Zm501.917,-605.5c44.208,-15.583 80.333,-41.833 101.792,-74c22.208,-33.25 37.958,-83.042 37.958,-120.042c0,-31.292 -11.667,-82.625 -24.458,-107.708c-24.792,-48.625 -68.5,-84.167 -122.875,-99.917c-30.958,-8.958 -39.875,-9.5 -161.458,-9.5l-128.708,0l0,425.542l264.583,-2.667l33.167,-11.708Z" style="fill:#008000;fill-rule:nonzero;"/></g><path id="dove" d="M1005.99,2239.595c-154.542,-15.125 -274.792,-49.042 -404.542,-114.125c-190.625,-95.542 -358.417,-260 -465.333,-456.042c-113.708,-208.583 -158.167,-462.458 -125.833,-718.75c43.5,-344.833 266.167,-664.208 579.042,-830.5c114.042,-60.583 250.292,-101.458 385.417,-115.625c65.625,-6.875 194.458,-5.792 252.917,2.083c155.167,21 296.833,69.792 424.958,146.375c188.917,112.958 332.625,263.292 431.833,451.833c113.333,215.375 147,487.417 92.542,748.208c-34.917,167.083 -110.708,327.375 -219.583,464.292c-37.833,47.583 -136.583,145.875 -181.75,180.833c-122.083,94.667 -242.333,157.5 -382.167,199.667c-60.083,18.125 -97.333,25.583 -180.375,36.125c-60.167,7.667 -158.958,10.333 -207.125,5.625Zm162.5,-203.75c173.75,-30.208 331.708,-123.333 439.792,-259.292c33.25,-41.792 70.833,-107.167 89.125,-155.042c25.208,-65.917 39.208,-148.75 38.875,-230.083c-0.417,-99.208 -14.75,-173.25 -54.292,-280.333c-35,-94.708 -39.958,-115.375 -37.667,-157c2.167,-39.5 11.5,-62.25 36.083,-88.125c26.917,-28.375 39.625,-32.375 114.792,-36.333c94.917,-5 125.042,-15.958 124.208,-45.25c-0.458,-15.708 -10.5,-34.958 -23.583,-45.292c-5.708,-4.458 -30.25,-15 -54.542,-23.375c-77.083,-26.625 -85.042,-34.5 -131.625,-129.625c-37.417,-76.417 -60.583,-109.167 -109.583,-155c-52.667,-49.25 -111.958,-80.25 -183.583,-96.042c-43.583,-9.583 -124.917,-8.375 -165.708,2.5c-99.5,26.542 -181.417,96.958 -226.667,194.917c-25.5,55.167 -29.792,81 -39,236.458c-4.625,78.208 -8.875,156.125 -9.417,173.208l-0.958,31.042l37.5,28.583c149.542,114.125 246.917,240.333 293.25,380.167c23.833,71.958 31.25,126.083 28.5,208.333c-2.333,70.667 -10.917,114.125 -33.875,172.167c-45.833,115.958 -157.708,224.417 -276.208,267.917c-13.292,4.875 -26.042,10.75 -28.333,13.042c-6.375,6.375 126.167,0.583 172.917,-7.542Zm273.167,-1316.375c-35.833,-12.75 -52.333,-35.667 -52.333,-72.542c0,-43.042 31.167,-75.417 72.583,-75.417c72.542,0 105.208,84.583 51.083,132.125c-13.208,11.583 -38.167,22.333 -50.75,21.833c-2.292,-0.083 -11.542,-2.792 -20.583,-6Zm-541.333,1235.042c47.5,-6.625 90.417,-21.708 132.292,-46.5c121.292,-71.792 190.042,-195.042 190.042,-340.667c0,-173.25 -102.667,-346.5 -279.458,-471.667c-39.667,-28.042 -221.917,-131.125 -485.125,-274.292c-18.333,-9.958 -66.042,-36.5 -106.042,-59c-40,-22.5 -76.792,-40.875 -81.75,-40.875c-7.708,0 -9.75,3.583 -13.667,23.958c-24.625,127.458 -13.417,272.25 30.667,396.875c17.833,50.333 58.167,128.292 87.708,169.417c34.292,47.667 110,121.917 153.917,150.917c71.417,47.125 176.917,90.25 263.75,107.792c20.917,4.208 39.167,8.833 40.583,10.25c3.583,3.583 -49,33.375 -81.417,46.125c-14.875,5.833 -46.75,15 -70.833,20.375c-37.792,8.375 -54.542,9.667 -122.917,9.417c-86.583,-0.333 -151.833,-9.167 -213.875,-28.958c-17.583,-5.625 -33.375,-10.25 -35.083,-10.292c-15.875,-0.25 47.292,84.167 109.125,145.917c82.458,82.292 162.375,131.667 269.167,166.417c78.042,25.417 149.042,33.667 212.917,24.792Z" style="fill:#008000;fill-rule:nonzero;"/></svg>